REM DATE 1995
PERFORMER "i厩ね"
TITLE "Jacky Cheung 24K Gold 髀枚 (disc 3)"
FILE "3.ape" WAVE
  TRACK 01 AUDIO
    TITLE "等你回来"
    INDEX 01 00:00:00
  TRACK 02 AUDIO
    TITLE "旧情绵绵"
    INDEX 00 04:21:65
    INDEX 01 04:23:60
  TRACK 03 AUDIO
    TITLE "还是觉得你最好"
    INDEX 00 08:51:40
    INDEX 01 08:52:05
  TRACK 04 AUDIO
    TITLE "夕阳醉了"
    INDEX 00 14:10:48
    INDEX 01 14:11:08
  TRACK 05 AUDIO
    TITLE "只愿一生爱一人"
    INDEX 00 19:18:55
    INDEX 01 19:19:33
  TRACK 06 AUDIO
    TITLE "真情流露"
    INDEX 00 23:34:55
    INDEX 01 23:34:68
  TRACK 07 AUDIO
    TITLE "相思风雨中"
    INDEX 00 28:43:35
    INDEX 01 28:45:00
  TRACK 08 AUDIO
    TITLE "Linda"
    INDEX 00 32:57:33
    INDEX 01 32:58:43
  TRACK 09 AUDIO
    TITLE "思忆季节"
    INDEX 00 37:23:68
    INDEX 01 37:25:00
  TRACK 10 AUDIO
    TITLE "每天爱你多一些"
    INDEX 00 42:20:38
    INDEX 01 42:21:63
  TRACK 11 AUDIO
    TITLE "明日世界终结时"
    INDEX 00 47:01:05
    INDEX 01 47:02:25
  TRACK 12 AUDIO
    TITLE "情已逝"
    INDEX 00 51:34:25
    INDEX 01 51:34:53
  TRACK 13 AUDIO
    TITLE "祝福"
    INDEX 00 56:16:08
    INDEX 01 56:17:70
